<?xml version="1.0" encoding="utf-8"?>
<!-- Generator: Adobe Illustrator 27.5.0, SVG Export Plug-In . SVG Version: 6.00 Build 0)  -->
<svg version="1.1" xmlns="http://www.w3.org/2000/svg" xmlns:xlink="http://www.w3.org/1999/xlink" x="0px" y="0px"
	 viewBox="0 0 500 500" style="enable-background:new 0 0 500 500;" xml:space="preserve">
<g id="BACKGROUND">
	<rect y="0.005" style="fill:#DBECF4;" width="500" height="499.99"/>
</g>
<g id="OBJECTS">
	<path style="opacity:0.3;fill:#FFFFFF;" d="M60.38,280.057c0,0-45.676-52.724,10.165-105.954
		c42.121-40.151,93.566,7.698,138.322-10.388c44.757-18.086,109.849-93.864,186.223-58.923
		c76.374,34.941,89.843,137.115,43.004,174.159L60.38,280.057z"/>
	<path style="fill:#526B1B;" d="M448.432,257.233c-18.272,3.874-36.194,12.229-54.759,10.177
		c-11.159-1.233-21.615-6.187-32.727-7.787c-27.663-3.981-55.602,13.123-82.927,7.255c-10.343-2.221-19.767-7.622-30.049-10.108
		c-31.911-7.716-64.799,13.632-97.276,8.83c-18.829-2.784-36.688-14.276-55.498-11.362c-7.905,1.225-15.186,4.941-22.879,7.135
		c-16.369,4.668-34.675,2.041-49.071-7.041c-5.17-3.262-9.923-7.342-15.66-9.452c-2.38-0.875-5.026-1.305-7.586-1.183v192.776h500
		V258.156C483.158,254.037,465.398,253.635,448.432,257.233z"/>
	<rect y="359.735" style="fill:#626C72;" width="500" height="85.585"/>
	<rect y="445.32" style="fill:#7EAD19;" width="500" height="54.68"/>
	<rect y="278.836" style="fill:#6E9022;" width="500" height="80.458"/>
	<path style="fill:#607D1F;" d="M284.377,307.404c0,2.477-55.335,4.485-123.595,4.485s-123.595-2.008-123.595-4.485
		c0-2.477,55.335-4.485,123.595-4.485S284.377,304.927,284.377,307.404z"/>
	<path style="fill:#607D1F;" d="M330.146,314.751c0,4.239,75.744,7.675,169.179,7.675v-15.35
		C405.891,307.076,330.146,310.512,330.146,314.751z"/>
	<polygon style="fill:#607D1F;" points="500,288.432 0,284.803 0,278.836 500,278.836 	"/>
	<g>
		<g>
			<rect y="399.836" style="fill:#F6F8F5;" width="23.956" height="5.383"/>
			<rect x="65.566" y="399.836" style="fill:#F6F8F5;" width="95.216" height="5.383"/>
			<rect x="202.392" y="399.836" style="fill:#F6F8F5;" width="95.216" height="5.383"/>
			<rect x="339.218" y="399.836" style="fill:#F6F8F5;" width="95.216" height="5.383"/>
			<rect x="476.044" y="399.836" style="fill:#F6F8F5;" width="23.956" height="5.383"/>
		</g>
	</g>
	<rect y="359.735" style="fill:#7C828B;" width="500" height="11.47"/>
	<rect y="332.076" style="fill:#BECAD3;" width="500" height="27.66"/>
	<g>
		<rect x="42.787" y="360.345" style="fill:#666C73;" width="3.036" height="10.861"/>
		<rect x="179.917" y="360.345" style="fill:#666C73;" width="3.036" height="10.861"/>
		<rect x="317.047" y="360.345" style="fill:#666C73;" width="3.036" height="10.861"/>
		<rect x="454.177" y="360.345" style="fill:#666C73;" width="3.036" height="10.861"/>
	</g>
	<path style="opacity:0.2;fill:#1F2526;" d="M0,408.335v20.385c242.701,0,439.448-4.563,439.448-10.193
		C439.448,412.898,242.701,408.335,0,408.335z"/>
	<g>
		<path style="fill:#AB5A40;" d="M222.963,235.217c0,0,0.192,3.674,3.468,3.674c8.038,0,49.225-0.693,49.225-0.693l1.176-6.969
			l-35.756-3.606L222.963,235.217z"/>
		<path style="fill:#AB5A40;" d="M276.832,231.229c0,0,7.103-1.207,9.04-1.419c1.475-0.161,5.88,7.154,5.679,7.966
			c-0.201,0.813-2.313,0-2.313,0s0.068,1.625-0.599,1.579c-0.666-0.046-1.358-0.731-1.358-0.731s0.779,2.042,0,2.078
			c-0.779,0.036-2.124-2.681-2.124-2.681s-7.263,2.848-9.501,0.176L276.832,231.229z"/>
		<g>
			<path style="fill:#454545;" d="M172.539,389.237l4.43,3.674c1.341,1.112,3.129,1.524,4.822,1.111l25.406-6.208l-8.529-10.158
				L172.539,389.237z"/>
			<path style="fill:#454545;" d="M286.034,264.059v5.07c0,5.462,3.272,10.388,8.309,12.502c7.115,2.986,16.266,6.801,16.58,6.801
				c0.515,0,11.066-11.066,11.066-11.066l-17.074-13.307H286.034z"/>
			<path style="fill:#2E2E2E;" d="M281.99,233.985h-4.292c-1.914,0-3.466,1.552-3.466,3.466v7.196c0,1.059,0.302,2.096,0.87,2.99
				l5.733,9.013c1.418,2.23,3.644,3.824,6.211,4.451l9.162,2.236l9.917-4.301l-11.635-25.05H281.99z"/>
			
				<rect x="274.663" y="238.312" transform="matrix(-1 -1.224647e-16 1.224647e-16 -1 574.2142 483.5761)" style="fill:#454545;" width="24.888" height="6.951"/>
			<path style="fill:#57B563;" d="M315.84,260.69l-4.541-5.801l10.424-1.36c3.614-0.471,4.955-5.007,2.178-7.367l-8.495-7.221
				c-3.764-3.199-8.544-4.956-13.484-4.956H281.99l0,0c0,4.198,2.812,7.875,6.863,8.975l8.222,2.232l-4.581,2.863
				c-2.109,1.319-2.521,4.22-0.862,6.074l5.874,6.562H315.84z"/>
			<path style="fill:#2E2E2E;" d="M319.119,386.552l-7.504,10.882c-2.295,3.329-6.08,5.316-10.124,5.316h-76.727
				c-3.183,0-6.242-1.234-8.534-3.443l-14.643-14.112L319.119,386.552z"/>
			<circle style="fill:#494949;" cx="362.566" cy="383.038" r="39.006"/>
			<circle style="fill:#B9B9B9;" cx="362.566" cy="383.038" r="19.713"/>
			<circle style="fill:#6E6E6E;" cx="362.566" cy="383.038" r="15.255"/>
			<circle style="fill:#494949;" cx="124.179" cy="383.038" r="39.006"/>
			<circle style="fill:#B9B9B9;" cx="124.179" cy="383.038" r="19.713"/>
			<circle style="fill:#6E6E6E;" cx="124.179" cy="383.038" r="15.255"/>
			<g>
				<g>
					<path style="fill:#E9EBE7;" d="M363.479,388.651L363.479,388.651c2.331-0.973,3.433-3.651,2.46-5.982l-7.413-17.768
						l-8.442,3.522l7.413,17.769C358.469,388.522,361.147,389.623,363.479,388.651z"/>
				</g>
			</g>
			
				<rect x="342.231" y="335.359" transform="matrix(-0.9229 0.385 -0.385 -0.9229 807.3845 546.2347)" style="fill:#2E2E2E;" width="13.543" height="37.19"/>
			<path style="fill:#57B563;" d="M406.399,365.328c0,0-9.655-34.833-52.731-34.833L338.814,350.6l7.519,9.702
				c2.457,3.171,6.243,5.026,10.255,5.026H406.399z"/>
			<line style="fill:none;stroke:#F6F8F5;stroke-miterlimit:10;" x1="374.042" y1="333.552" x2="365.801" y2="365.328"/>
			<path style="fill:#2E2E2E;" d="M154.526,291.202h-30.343c-3.048,0-5.336,2.785-4.744,5.775l5.035,25.449
				c0.733,3.707,3.109,6.881,6.458,8.629l20.09,10.489L154.526,291.202z"/>
			<path style="fill:#EA613B;" d="M125.23,298.914l3.602,18.207c0.543,2.747-1.559,5.305-4.359,5.305h0l-5.035-25.449h3.434
				C124.02,296.977,125.007,297.788,125.23,298.914z"/>
			<path style="fill:#2E2E2E;" d="M155.495,340.075l-32.803,32.96c-5.808,5.836-6.325,15.098-1.201,21.543l0,0
				c4.198,5.282,11.227,7.414,17.652,5.356l55.234-17.692L155.495,340.075z"/>
			<polygon style="fill:#454545;" points="238.017,359.578 307.948,361.123 307.948,374.768 219.802,374.768 			"/>
			<path style="fill:#2E2E2E;" d="M308.949,259.939l-5.407,4.119l10.556,18.537l-3.5,1.878c-3.908,2.097-5.397,6.951-3.338,10.879
				l6.752,12.878c2.168,4.136,2.459,8.999,0.798,13.363c-4.918,12.918-15.001,40.426-15.001,48.797l47.502-48.523L308.949,259.939z"
				/>
			<path style="fill:#2E2E2E;" d="M238.017,359.578l-15.834,15.19l-20.597-24.459v-35.144h36.431l-9.057,18.254
				c-2.05,4.132-1.794,9.034,0.675,12.93L238.017,359.578z"/>
			<path style="fill:#454545;" d="M128.61,282.194L128.61,282.194c-1.116,5.99,2.348,11.888,8.123,13.831l72.577,24.418h26.678
				c2.998,0,5.84-1.336,7.753-3.643l1.508-1.819c1.324-1.597,1.284-3.921-0.094-5.472l-17.492-19.685
				c-2.3-2.589-5.732-3.873-9.167-3.43l-12.058,1.556c-9.54,1.231-19.204,1.147-28.721-0.25l-47.131-6.919
				C129.655,280.645,128.782,281.268,128.61,282.194z"/>
			<path style="fill:#F6F8F5;" d="M362.273,308.187l-28.218-36.153c-11.501-14.736-32.374-18.202-48.022-7.976h0l10.826,3.984
				c10.558,3.886,19.366,11.44,24.815,21.283l7.02,12.681c7.229,13.058,5.481,29.249-4.367,40.464l-20.445,23.282
				c-2.59,2.949-6.324,4.639-10.248,4.639h-61.646c-4.234,0-8.229-1.967-10.811-5.323l-8.11-10.543
				c-1.988-2.585-2.349-6.07-0.932-9.007l5.054-10.477c0.965-2.001,1.026-4.319,0.166-6.368l-2.809-6.695
				c-5.597-13.339-17.542-22.956-31.768-25.577l-27.06-4.986c-1.495-0.275-3.035-0.169-4.477,0.309l-10.794,3.579
				c-3.31,1.098-5.545,4.193-5.545,7.68v17.667c0,2.01,0.748,3.948,2.098,5.436l59.965,66.103c3.024,3.333,7.315,5.234,11.815,5.234
				h94.224c5.036,0,9.776-2.378,12.787-6.414l46.702-62.609C366.984,322.383,366.893,314.106,362.273,308.187z"/>
			
				<rect x="277.619" y="395.794" transform="matrix(-1 -1.224647e-16 1.224647e-16 -1 574.5924 793.2677)" style="fill:#D7D9D6;" width="19.354" height="1.679"/>
			
				<rect x="252.216" y="395.794" transform="matrix(-1 -1.224647e-16 1.224647e-16 -1 523.7872 793.2677)" style="fill:#D7D9D6;" width="19.354" height="1.679"/>
			
				<rect x="226.814" y="395.794" transform="matrix(-1 -1.224647e-16 1.224647e-16 -1 472.9819 793.2677)" style="fill:#D7D9D6;" width="19.354" height="1.679"/>
			<polygon style="fill:#57B563;" points="304.277,385.917 244.241,385.917 239.788,390.903 305.985,390.903 			"/>
			<line style="fill:none;stroke:#E9EBE7;stroke-miterlimit:10;" x1="350.317" y1="292.868" x2="330.146" y2="304.955"/>
			<line style="fill:none;stroke:#E9EBE7;stroke-miterlimit:10;" x1="227.736" y1="369.441" x2="203.823" y2="396.634"/>
			<path style="fill:#E9EBE7;" d="M207.004,366.219l-29.041-32.002l17.686,11.201c3.482,2.205,7.753,2.778,11.693,1.57l4.793-1.47
				c-1.417,2.937-1.056,6.422,0.932,9.007l8.11,10.543c2.582,3.356,6.576,5.323,10.811,5.323h-15.564
				C212.836,370.392,209.415,368.876,207.004,366.219z"/>
			<g style="opacity:0.05;">
				<path style="fill:#454545;" d="M294.056,370.369c-2.283,1.615-5.024,2.516-7.872,2.516h-61.646
					c-4.234,0-8.229-1.967-10.81-5.323l-8.11-10.543c-1.988-2.585-2.349-6.069-0.932-9.007l5.054-10.477
					c0.965-2.001,1.026-4.32,0.166-6.368l-2.809-6.695c-5.597-13.339-17.542-22.956-31.768-25.577l-27.06-4.986
					c-1.495-0.275-3.035-0.169-4.477,0.309l-3.591,1.191c0.085-0.031,0.161-0.076,0.248-0.105l10.794-3.579
					c1.443-0.478,2.983-0.585,4.477-0.309l27.06,4.986c14.226,2.621,26.171,12.238,31.768,25.577l2.809,6.695
					c0.86,2.049,0.799,4.367-0.166,6.368l-5.054,10.477c-1.417,2.937-1.056,6.422,0.932,9.006l8.11,10.543
					c2.582,3.356,6.576,5.323,10.81,5.323h61.646C293.776,370.392,293.915,370.373,294.056,370.369z"/>
			</g>
			<path style="fill:#3B3B3B;" d="M158.718,288.002v4.853c0,0.804-0.652,1.456-1.456,1.456h-4.169c-0.112,0-0.223-0.013-0.332-0.038
				l-26.327-6.162c-2.106-0.493-3.454-2.553-3.062-4.68l0,0c0.113-0.613,0.685-1.032,1.303-0.955l32.766,4.081
				C158.171,286.647,158.718,287.267,158.718,288.002z"/>
			<line style="fill:none;stroke:#E9EBE7;stroke-miterlimit:10;" x1="298.634" y1="369.441" x2="307.948" y2="396.634"/>
			<path style="fill:#363636;" d="M174.774,376.734c-7.699-1.214-14.138-6.5-16.827-13.815l-2.712-7.375l-17.612,17.696
				c-2.2,2.211-3.029,5.525-1.886,8.428c1.529,3.885,5.779,5.72,9.518,4.521L174.774,376.734L174.774,376.734z"/>
			<path style="fill:#3D3D3D;" d="M271.187,241.788c0,1.92,1.556,3.476,3.476,3.476s3.476-1.556,3.476-3.476
				s-1.556-3.476-3.476-3.476S271.187,239.868,271.187,241.788z"/>
			<path style="fill:none;stroke:#F6F8F5;stroke-miterlimit:10;" d="M300.324,233.985l6.617,9.693
				c1.337,1.959,3.555,3.13,5.927,3.13h11.651"/>
			<path style="fill:#57B563;" d="M185.784,379.864c-0.083-0.091,0.807-3.427,1.5-5.968c0.486-1.78,0.031-3.684-1.205-5.054
				l-24.153-26.78c-1.13-1.253-2.778-1.908-4.46-1.773l-7.068,0.568L185.784,379.864z"/>
			<path style="fill:#EA613B;" d="M317.962,359.316L317.962,359.316c1.061,0.874,2.629,0.723,3.504-0.338l3.052-3.703
				c0.874-1.061,0.723-2.629-0.337-3.504l0,0c-1.061-0.874-2.629-0.723-3.504,0.338l-3.052,3.703
				C316.75,356.874,316.901,358.442,317.962,359.316z"/>
			<path style="fill:#2E2E2E;" d="M179.444,390.903c0,0.545,0.442,0.987,0.987,0.987s0.987-0.442,0.987-0.987
				c0-0.545-0.442-0.987-0.987-0.987S179.444,390.358,179.444,390.903z"/>
			<g>
				<g>
					
						<rect x="174.777" y="358.992" transform="matrix(0.7394 -0.6733 0.6733 0.7394 -201.3921 214.2079)" style="fill:#494949;" width="2.415" height="16.478"/>
					
						<rect x="159.727" y="342.467" transform="matrix(0.7394 -0.6733 0.6733 0.7394 -194.188 199.7672)" style="fill:#494949;" width="2.415" height="16.478"/>
				</g>
			</g>
			
				<ellipse transform="matrix(0.7071 -0.7071 0.7071 0.7071 -180.194 209.8252)" style="fill:#E9EBE7;" cx="163.184" cy="322.426" rx="9.62" ry="9.62"/>
			<polygon style="fill:#57B563;" points="163.479,315.165 156.767,323.829 162.503,323.829 160.306,329.686 168.937,320.29 
				162.852,320.047 			"/>
			<path style="fill:#D7D9D6;" d="M337.343,276.245l24.931,31.942l0,0c-3.611,2.299-8.376,1.485-11.018-1.883L338.623,290.2
				C335.489,286.205,334.988,280.744,337.343,276.245L337.343,276.245z"/>
			<polygon style="fill:#57B563;" points="225.915,385.917 238.483,385.917 234.03,390.903 221.462,390.903 			"/>
		</g>
		<g>
			<polygon style="fill:#FE7A63;" points="268.39,336.279 267.011,356.604 256.18,356.604 258.088,336.279 			"/>
			<path style="fill:#F2F2F2;" d="M267.453,350.049c0,0-3.706-1.239-5.931,3.422c-1.218,2.553-5.262,0.817-5.262,0.817
				s-2.861,2.896-2.861,8.872h28.602c0,0-0.116-2.553-0.812-3.481c-0.696-0.928-9.341-1.992-11.62-2.591
				C268.098,356.7,267.453,350.049,267.453,350.049z"/>
			<rect x="253.4" y="363.16" style="fill:#FDBD51;" width="28.602" height="1.973"/>
			<path style="fill:none;stroke:#26355B;stroke-width:0.5;stroke-miterlimit:10;" d="M274.852,358.062c0,0,0.227,3.009-2.055,2.816
				c-2.282-0.193-7.967-1.508-8.238,2.282"/>
			
				<line style="fill:none;stroke:#26355B;stroke-width:0.25;stroke-miterlimit:10;" x1="268.89" y1="352.775" x2="265.641" y2="353.587"/>
			
				<line style="fill:none;stroke:#26355B;stroke-width:0.5;stroke-miterlimit:10;" x1="269.265" y1="354.298" x2="266.136" y2="355.491"/>
			
				<line style="fill:none;stroke:#26355B;stroke-width:0.5;stroke-miterlimit:10;" x1="269.583" y1="355.749" x2="266.704" y2="357.459"/>
			<path style="fill:none;stroke:#26355B;stroke-width:0.5;stroke-miterlimit:10;" d="M254.808,356.53c0,0,4.49,1.641,4.103,6.63"/>
		</g>
		<path style="fill:#546F94;" d="M280.139,277.95c-2.84-5.498-56.384-13.848-56.384-13.848l-32.942,0.475
			c0,0-5.046,26.69,8.184,26.941c11.045,0.21,66.182,0,66.182,0l-7.777,59.187h11.866
			C269.269,350.706,282.759,283.022,280.139,277.95z"/>
		
			<line style="fill:none;stroke:#0D0000;stroke-width:0.5;stroke-miterlimit:10;" x1="270.392" y1="344.967" x2="258.157" y2="344.967"/>
		<g>
			<g>
				<g>
					<g>
						<path style="fill:#F2F2F2;" d="M227.858,181.054c1.831,9.921,3.856,13.31,5.705,21.095c2.099,8.836,9.101,24.704,9.101,24.704
							s-14.043,7.081-21.213,6.938c0,0-3.37-4.482-1.205-6.304c0,0-6.151-30.243-4.252-36.669
							C217.892,184.393,227.858,181.054,227.858,181.054z"/>
					</g>
				</g>
			</g>
			
				<line style="fill:none;stroke:#0D0000;stroke-width:0.5;stroke-miterlimit:10;" x1="240.603" y1="222.007" x2="219.8" y2="230.686"/>
			<g>
				<path style="fill:#D84F63;" d="M226.429,178.949l-10.701-8.226c0,0-19.804,10.088-25.375,17.113
					c-12.022,15.16-14.368,76.74-14.368,76.74l47.77-0.475c1.163-5.639,6.565-59.799,8.414-67.489
					C234.018,188.922,226.429,178.949,226.429,178.949z"/>
				
					<line style="fill:none;stroke:#0D0000;stroke-width:0.5;stroke-miterlimit:10;" x1="225.374" y1="226.347" x2="201.973" y2="251.436"/>
				
					<line style="fill:none;stroke:#0D0000;stroke-width:0.5;stroke-miterlimit:10;" x1="225.374" y1="235.165" x2="217.325" y2="248.696"/>
				<polygon style="fill:#D9D9D9;" points="193.226,199.464 185.926,264.439 188.494,264.577 197.229,199.464 				"/>
				<path style="fill:#F2F2F2;" d="M211.742,172.67c0,0,4.058,8.147,8.614,9.908c5.081,1.964,7.503-1.523,7.503-1.523l-1.429-2.106
					l-10.701-8.225L211.742,172.67z"/>
				<path style="fill:#F2F2F2;" d="M198.104,189.092l16.894-14.988c0,0,2.68,1.834,2.68,2.257s-15.375,14.247-15.375,14.247
					L198.104,189.092z"/>
			</g>
			<path style="fill:#F2F2F2;" d="M215.913,206.042c-1.465-7.867-11.113-19.746-16.411-18.041c0,0-5.293,3.276-6.244,9.908
				c-0.951,6.632,11.13,40.403,11.13,40.403l22.62-9.666C227.008,228.647,217.378,213.909,215.913,206.042z"/>
			<g>
				<path style="fill:#D47050;" d="M227.858,181.054l5.488-26.132l-13.546,0.034l-4.072,15.766
					C215.728,170.723,216.427,180.713,227.858,181.054z"/>
				<path style="fill:#0D0000;" d="M222.085,160.25c0,0-2.579,11.835,7.233,13.854l2.775-13.216L222.085,160.25z"/>
				<path style="fill:#D47050;" d="M241.897,140.645l-0.792,17.145c-0.259,5.596-5.005,9.924-10.602,9.665l0,0
					c-3.65-0.169-6.969-2.164-8.83-5.307l-2.397-4.047l0.853-18.461L241.897,140.645z"/>
				<ellipse style="fill:#491800;" cx="229.12" cy="154.109" rx="0.732" ry="1.459"/>
				<path style="fill:#491800;" d="M237.28,154.109c0,0.805-0.328,1.458-0.732,1.458c-0.404,0-0.732-0.653-0.732-1.458
					s0.328-1.458,0.732-1.458C236.952,152.65,237.28,153.303,237.28,154.109z"/>
				<path style="fill:#F2F2F2;" d="M227.819,161.774l8.729-0.511c0,0-1.249,4.506-4.455,4.574
					C228.887,165.906,227.819,161.774,227.819,161.774z"/>
				<path style="fill:none;stroke:#2C1817;stroke-width:0.5;stroke-miterlimit:10;" d="M232.543,151.511c0,0,1.304,6.069,0.9,7.144
					c-0.266,0.707-1.443,0.943-1.812,0.968"/>
				<path style="fill:#491800;" d="M229.852,148.751c0.026,0.395-2.157,0.863-3.462,0.95c-1.305,0.087-1.776-0.204-1.803-0.6
					c-0.026-0.396,1.548-0.822,2.854-0.909C228.746,148.105,229.826,148.355,229.852,148.751z"/>
				<path style="fill:#491800;" d="M234.426,148.446c0.026,0.396,2.252,0.57,3.558,0.483c1.305-0.087,1.734-0.438,1.707-0.833
					c-0.026-0.396-1.643-0.61-2.949-0.523C235.437,147.659,234.4,148.051,234.426,148.446z"/>
				<path style="fill:#FE7A63;" d="M220.913,153.555c-0.096,2.081-1.847,3.596-3.911,3.384c-2.064-0.212-3.659-2.071-3.563-4.152
					c0.096-2.081,1.847-3.596,3.911-3.384C219.414,149.616,221.009,151.475,220.913,153.555z"/>
				<path style="fill:none;stroke:#2C1817;stroke-width:0.5;stroke-miterlimit:10;" d="M215.583,152.855
					c1.37-0.43,2.636-0.328,3.598,1.733"/>
				<path style="fill:#75332F;" d="M220.913,153.555c2.707,0.126,2.85-8.615,3.062-10.21c1.914,2.324,7.816,4.533,9.755,4.19
					c2.033-0.36,2.293-2.088,0.95-3.024c1.265,1.225,7.135,3.939,8.453,3.338c1.514-0.691,0.567-9.193-1.79-10.243
					c-2.357-1.05-20.518-0.684-21.857,1.18C217.871,141.033,217.638,153.403,220.913,153.555z"/>
			</g>
		</g>
		<g>
			<polygon style="fill:#FE7A63;" points="257.403,341.716 256.024,362.041 245.193,362.041 247.101,341.716 			"/>
			<path style="fill:#FFFFFF;" d="M256.466,355.486c0,0-3.706-1.239-5.931,3.422c-1.218,2.553-5.262,0.817-5.262,0.817
				s-2.861,2.896-2.861,8.872h28.602c0,0-0.116-2.553-0.812-3.481c-0.696-0.928-9.341-1.992-11.62-2.591
				C257.111,362.138,256.466,355.486,256.466,355.486z"/>
			<rect x="242.412" y="368.597" style="fill:#FDBD51;" width="28.602" height="1.972"/>
			<path style="fill:none;stroke:#26355B;stroke-width:0.5;stroke-miterlimit:10;" d="M263.864,363.499c0,0,0.227,3.009-2.055,2.816
				c-2.282-0.193-7.967-1.508-8.238,2.282"/>
			
				<line style="fill:none;stroke:#26355B;stroke-width:0.25;stroke-miterlimit:10;" x1="257.903" y1="358.212" x2="254.654" y2="359.025"/>
			
				<line style="fill:none;stroke:#26355B;stroke-width:0.5;stroke-miterlimit:10;" x1="258.278" y1="359.735" x2="255.149" y2="360.928"/>
			
				<line style="fill:none;stroke:#26355B;stroke-width:0.5;stroke-miterlimit:10;" x1="258.596" y1="361.186" x2="255.717" y2="362.897"/>
			<path style="fill:none;stroke:#26355B;stroke-width:0.5;stroke-miterlimit:10;" d="M243.821,361.967c0,0,4.49,1.641,4.103,6.63"
				/>
		</g>
		<path style="fill:#607EA8;" d="M270.889,282.467c0-4.517-60.787-18.365-60.787-18.365l-34.117,0.475c0,0-5.047,26.69,8.184,26.941
			c11.045,0.21,66.182,0,66.182,0l-8.722,65.063h17.445C259.074,356.581,270.889,288.176,270.889,282.467z"/>
		<path style="fill:#D47050;" d="M207.891,236.784c0,0,0.471,5.004,4.239,5.004c9.245,0,55.385-3.59,55.385-3.59l1.352-6.969
			l-41.859-2.582L207.891,236.784z"/>
		<path style="fill:#D47050;" d="M268.867,231.229c0,0,8.17-1.207,10.398-1.419c1.697-0.161,6.763,7.154,6.532,7.966
			c-0.231,0.813-2.661,0-2.661,0s0.078,1.625-0.689,1.579c-0.766-0.046-1.562-0.731-1.562-0.731s0.896,2.042,0,2.078
			c-0.895,0.036-2.443-2.681-2.443-2.681s-8.355,2.848-10.928,0.176L268.867,231.229z"/>
		
			<line style="fill:none;stroke:#0D0000;stroke-width:0.5;stroke-miterlimit:10;" x1="202.81" y1="233.794" x2="224.537" y2="224.666"/>
		
			<line style="fill:none;stroke:#0D0000;stroke-width:0.5;stroke-miterlimit:10;" x1="176.215" y1="259.939" x2="224.537" y2="259.939"/>
		
			<line style="fill:none;stroke:#0D0000;stroke-width:0.5;stroke-miterlimit:10;" x1="227.008" y1="228.647" x2="224.537" y2="232.02"/>
		<path style="fill:none;stroke:#7397C9;stroke-width:0.5;stroke-miterlimit:10;" d="M181.643,264.53c0,0-2.738,18.934,4.283,21.199
			c7.021,2.265,67.235,0.229,68.728,2.703c1.493,2.474-2.06,21.909-10.839,67.8"/>
		
			<line style="fill:none;stroke:#0D0000;stroke-width:0.5;stroke-miterlimit:10;" x1="242.26" y1="351.879" x2="259.882" y2="351.879"/>
		
			<line style="fill:none;stroke:#0D0000;stroke-width:0.5;stroke-miterlimit:10;" x1="250.352" y1="291.518" x2="251.522" y2="284.803"/>
		<path style="opacity:0.2;fill:#4C5054;" d="M245.702,142.328c0,0,6.128,6.005,2.368,12.595H220.13v-12.595H245.702z"/>
		<polygon style="opacity:0.2;fill:#F6F8F5;" points="239.677,154.923 233.432,154.923 230.303,142.328 236.548,142.328 		"/>
		<polygon style="opacity:0.2;fill:#F6F8F5;" points="245.358,154.923 242.395,154.923 239.266,142.328 242.229,142.328 		"/>
		<path style="fill:#57B563;" d="M245.714,140.788c0.024,0.498,0.012,1.019-0.012,1.54l-18.836-0.035
			c-3.009-0.047-5.982,2.796-4.881,5.591c1.872,4.762,1.315,6.8-2.192,9.074c-1.031,0.663-2.867,0.687-4.893,0.012
			c-0.012-0.012-0.024-0.012-0.024-0.012c-4.739-1.576-9.155-10.512-7.266-17.972c3.725-14.708,18.283-17.236,24.964-15.542
			C239.341,125.163,245.525,131.157,245.714,140.788z"/>
		<path style="fill:#60C76D;" d="M225.149,123.245c0,0,11.426,5.557,11.426,17.543h3.558
			C240.133,140.788,238.117,123.245,225.149,123.245z"/>
		<path style="fill:#60C76D;" d="M230.303,123.245c0,0,11.426,5.557,11.426,17.543h3.558
			C245.287,140.788,243.271,123.245,230.303,123.245z"/>
		<path style="fill:#F2F2F2;" d="M245.727,140.788v1.54h-0.025l-18.836-0.035c-3.009-0.047-5.982,2.796-4.881,5.591
			c1.872,4.762,1.315,6.8-2.192,9.074c-1.031,0.663-2.867,0.687-4.893,0.012c-0.012-0.012-0.024-0.012-0.024-0.012
			c6.741-0.971,6.607-5.447,4.922-10.19c-1.126-3.168,2.459-5.981,5.029-5.981h20.885H245.727z"/>
		<circle style="fill:#60C76D;" cx="215.37" cy="149.716" r="2.968"/>
	</g>
	<path style="fill:#719C16;" d="M0,460.53c0,0,312.289-2.074,312.421,7.204C312.553,477.012,0,478.762,0,478.762V460.53z"/>
	<path style="fill:#719C16;" d="M500,483.448c0,0-141.096,2.702-141.1,5.451c-0.009,7.167,141.1,5.462,141.1,5.462V483.448z"/>
	<polygon style="fill:#719C16;" points="0,445.32 500,445.32 500,449.657 0,452.694 	"/>
	<path style="fill:#FFFFFF;" d="M435.821,129.519c-2.997-1.209-5.702-3.072-8.725-4.217c-16.125-6.112-35.131,9.58-50.653,2.067
		c-2.968-1.436-5.631-3.683-8.88-4.242c-7.661-1.316-13.462,6.947-20.913,9.16c-3.023,0.898-6.24,0.759-9.393,0.828
		c-6.859,0.149-13.695,1.325-20.21,3.475l161.704-0.857C467.275,126.501,449.48,135.029,435.821,129.519z"/>
	<path style="fill:#FFFFFF;" d="M143.892,221.831L0,221.05v-23.341c3.545-0.136,7.004,0.459,10.202,2.107
		c7.152,3.694,11.665,12.136,19.548,13.722c5.95,1.202,11.863-1.971,17.9-2.516c9.111-0.818,17.553,4.277,26.329,6.867
		C96.502,224.521,121.579,214.505,143.892,221.831z"/>
</g>
</svg>
